<svg height="512pt" viewBox="0 0 512 512" width="512pt" xmlns="http://www.w3.org/2000/svg"><path d="m255.996094 512c-75.777344 0-143.957032-33.109375-190.867188-85.601562l102.113282-53.753907zm0 0" fill="#9ee2f8"/><path d="m144.296875 235.984375 2.929687 156.675781c-30.660156 8.40625-58.433593 20.039063-82.097656 33.738282-40.480468-45.292969-65.128906-105.015626-65.128906-170.398438zm0 0" fill="#78b9eb"/><path d="m124.28125 256h-124.28125c0-65.382812 24.648438-125.105469 65.128906-170.398438l112.121094 13.722657zm0 0" fill="#9ee2f8"/><path d="m147.226562 119.339844c-30.660156-8.410156-58.433593-20.039063-82.097656-33.738282 46.914063-52.496093 115.09375-85.601562 190.871094-85.601562zm0 0" fill="#78b9eb"/><path d="m256.003906 512c75.777344 0 143.957032-33.109375 190.867188-85.601562l-102.113282-53.753907zm0 0" fill="#005fe1"/><path d="m367.703125 235.984375-2.929687 156.675781c30.660156 8.40625 58.433593 20.039063 82.097656 33.738282 40.480468-45.292969 65.128906-105.015626 65.128906-170.398438zm0 0" fill="#212cbb"/><path d="m387.71875 256h124.28125c0-65.382812-24.648438-125.105469-65.128906-170.398438l-112.121094 13.722657zm0 0" fill="#005fe1"/><path d="m364.773438 119.339844c30.660156-8.410156 58.433593-20.039063 82.097656-33.738282-46.914063-52.496093-115.09375-85.601562-190.871094-85.601562zm0 0" fill="#212cbb"/><path d="m364.773438 392.660156-128.785157-34.511718s20.011719 153.851562 20.011719 153.851562h.003906c40.058594-.003906 83.167969-47.679688 108.769532-119.339844zm0 0" fill="#218adc"/><path d="m256 378.164062h.003906c38.625 0 75.402344 5.34375 108.769532 14.496094 14.140624-39.570312 22.945312-86.445312 22.945312-136.660156l-151.734375-20.015625zm0 0" fill="#005fe1"/><path d="m235.984375 113.816406 20.015625 142.183594h131.71875c0-50.214844-8.808594-97.089844-22.945312-136.660156zm0 0" fill="#218adc"/><path d="m364.773438 119.339844c-25.605469-71.664063-68.714844-119.339844-108.773438-119.339844l-20.015625 66.917969 20.015625 66.917969c38.628906 0 75.402344-5.34375 108.773438-14.496094zm0 0" fill="#005fe1"/><path d="m147.226562 392.660156c25.605469 71.660156 68.710938 119.335938 108.769532 119.339844h.003906v-133.835938c-38.628906.003907-75.402344 5.34375-108.773438 14.496094zm0 0" fill="#78b9eb"/><path d="m124.28125 256c0 50.214844 8.808594 97.09375 22.945312 136.660156 33.371094-9.152344 70.144532-14.492187 108.773438-14.496094v-122.164062zm0 0" fill="#218adc"/><path d="m147.226562 119.339844c33.371094 9.152344 70.144532 14.496094 108.773438 14.496094v-133.835938c-40.058594 0-83.167969 47.675781-108.773438 119.339844zm0 0" fill="#218adc"/><path d="m256 133.835938c-38.628906 0-75.402344-5.34375-108.773438-14.496094-14.136718 39.570312-22.945312 86.445312-22.945312 136.660156h131.71875zm0 0" fill="#78b9eb"/></svg>