<?xml version="1.0" encoding="iso-8859-1"?>
<!-- Generator: Adobe Illustrator 19.0.0, SVG Export Plug-In . SVG Version: 6.00 Build 0)  -->
<svg version="1.1" id="Layer_1" xmlns="http://www.w3.org/2000/svg" xmlns:xlink="http://www.w3.org/1999/xlink" x="0px" y="0px"
	 viewBox="0 0 512 512" style="enable-background:new 0 0 512 512;" xml:space="preserve">
<path style="fill:#C7CFE2;" d="M264.83,0h-17.655c-4.875,0-8.828,3.953-8.828,8.828v35.31h35.31V8.828
	C273.657,3.953,269.705,0,264.83,0z"/>
<path style="fill:#AFB9D2;" d="M264.83,0h-17.655c-4.875,0-8.828,3.953-8.828,8.828v35.31h17.655V8.828
	C256.002,3.953,259.954,0,264.83,0z"/>
<path style="fill:#C7CFE2;" d="M414.894,238.337c4.875,0,8.828,3.953,8.828,8.828v35.31c0,4.875-3.953,8.828-8.828,8.828h-35.31
	v-52.966L414.894,238.337L414.894,238.337z"/>
<path style="fill:#AFB9D2;" d="M423.722,264.82v17.655c0,4.875-3.953,8.828-8.828,8.828h-35.31v-17.655h35.31
	C419.769,273.647,423.722,269.695,423.722,264.82z"/>
<path style="fill:#C84146;" d="M374.222,320.631c8.253-1.651,14.193-8.896,14.193-17.312v-76.983c0-8.416-5.94-15.662-14.193-17.312
	l-29.944-5.99v123.586L374.222,320.631z"/>
<path style="fill:#AFB9D2;" d="M97.106,238.345c-4.875,0-8.828,3.953-8.828,8.828v35.31c0,4.875,3.953,8.828,8.828,8.828h35.31
	v-52.965H97.106z"/>
<path style="fill:#959CB5;" d="M88.278,264.828v17.655c0,4.875,3.953,8.828,8.828,8.828h35.31v-17.655h-35.31
	C92.23,273.655,88.278,269.703,88.278,264.828z"/>
<path style="fill:#FF5050;" d="M256.002,35.31L256.002,35.31c-53.629,0-97.103,43.475-97.103,97.103v361.931h194.207V132.414
	C353.106,78.785,309.631,35.31,256.002,35.31z"/>
<path style="fill:#B5383D;" d="M137.781,209.023c-8.253,1.651-14.193,8.896-14.193,17.312v76.983c0,8.416,5.94,15.662,14.193,17.312
	l29.945,5.991V203.034L137.781,209.023z"/>
<g>
	<path style="fill:#C84146;" d="M268.665,204.302c-12.813-2.561-25.084-1.126-35.847,3.255c-5.806,2.362-12.127-1.852-12.127-8.119
		v-67.025c0-42.814,27.744-79.081,66.207-91.998c-16.696-5.608-35.316-7.02-54.828-2.094
		c-43.582,11.001-73.172,51.663-73.172,96.612v359.411h61.793V330.229c0-6.309,6.372-10.462,12.221-8.093
		c7.13,2.889,14.921,4.486,23.09,4.486c38.132,0,68.198-34.54,60.616-74.04C312,228.522,292.689,209.105,268.665,204.302z"/>
	<path style="fill:#C84146;" d="M397.244,512H114.761c-4.875,0-8.828-3.953-8.828-8.828v-17.655c0-4.875,3.953-8.828,8.828-8.828
		h282.483c4.875,0,8.828,3.953,8.828,8.828v17.655C406.071,508.047,402.119,512,397.244,512z"/>
	<path style="fill:#C84146;" d="M370.761,167.724H141.244c-4.875,0-8.828-3.953-8.828-8.828v-17.655
		c0-4.875,3.953-8.828,8.828-8.828h229.517c4.875,0,8.828,3.953,8.828,8.828v17.655
		C379.588,163.772,375.636,167.724,370.761,167.724z"/>
</g>
<g>
	<path style="fill:#B5383D;" d="M211.864,158.897v-17.655c0-4.875,3.953-8.828,8.828-8.828h-79.448
		c-4.875,0-8.828,3.953-8.828,8.828v17.655c0,4.875,3.953,8.828,8.828,8.828h79.448
		C215.816,167.724,211.864,163.772,211.864,158.897z"/>
	<path style="fill:#B5383D;" d="M211.864,503.172v-17.655c0-4.875,3.953-8.828,8.828-8.828H114.761
		c-4.875,0-8.828,3.953-8.828,8.828v17.655c0,4.875,3.953,8.828,8.828,8.828h105.931C215.816,512,211.864,508.047,211.864,503.172z"
		/>
	<circle style="fill:#B5383D;" cx="256" cy="264.828" r="44.138"/>
</g>
<circle style="fill:#C7CFE2;" cx="256" cy="264.828" r="26.483"/>
<path style="fill:#AFB9D2;" d="M269.244,278.069c-14.626,0-26.483-11.857-26.483-26.483c0-3.881,0.881-7.54,2.381-10.86
	c-9.195,4.152-15.623,13.356-15.623,24.102c0,14.626,11.857,26.483,26.483,26.483c10.745,0,19.949-6.426,24.102-15.623
	C276.782,277.187,273.124,278.069,269.244,278.069z"/>
<g>
</g>
<g>
</g>
<g>
</g>
<g>
</g>
<g>
</g>
<g>
</g>
<g>
</g>
<g>
</g>
<g>
</g>
<g>
</g>
<g>
</g>
<g>
</g>
<g>
</g>
<g>
</g>
<g>
</g>
</svg>
