<svg height="496pt" viewBox="0 -52 496 496" width="496pt" xmlns="http://www.w3.org/2000/svg"><path d="m496 21.769531c0-12-9.769531-21.769531-21.769531-21.769531-2.351563 0-4.671875.375-6.878907 1.121094l-99.351562 33.109375v17.417969c0 37.128906-23.105469 70.839843-57.609375 84.351562h-6.390625v-72c0-30.878906-25.128906-56-56-56-25.367188 0-46.824219 16.976562-53.679688 40.160156-19.769531.808594-37.945312 10.855469-48.976562 27.40625l13.3125 8.875c2.199219-3.296875 4.792969-6.242187 7.671875-8.808594 6.488281 7.3125 15.65625 11.726563 25.671875 12.238282v48.128906h-6.390625c-34.503906-13.511719-57.609375-47.222656-57.609375-84.351562v-17.417969l-99.34375-33.109375c-2.214844-.746094-4.535156-1.121094-6.886719-1.121094-12 0-21.769531 9.769531-21.769531 21.769531v.910157c0 6.664062 2.992188 12.761718 7.945312 16.816406l-5.066406 25.3125c-1.910156 9.558594-2.878906 19.34375-2.878906 29.078125 0 39.609375 15.425781 76.847656 43.433594 104.847656 33.605468 33.609375 77.320312 53.417969 124.269531 56.714844l-17.421875 24.390625 8.726562 13.097656-30.421874 24.335938-5.578126-5.578126c11.800782-1.496093 20.992188-11.488281 20.992188-23.695312v-24h-24c-12.207031 0-22.199219 9.191406-23.695312 20.992188l-.304688-.304688v-12.6875c0-13.230469-10.769531-24-24-24h-24v24c0 13.230469 10.769531 24 24 24h12.6875l16.304688 16.304688c-11.800782 1.496093-20.992188 11.488281-20.992188 23.695312v24h24c12.207031 0 22.199219-9.191406 23.695312-20.992188l26.648438 26.648438 11.3125-11.3125-25.679688-25.679688 27.945313-22.359374 4.804687 7.214843 28.097657-9.367187-20.34375 25.449218 67.519531 48.230469 67.519531-48.222656-20.351562-25.449219 28.097656 9.367188 4.804687-7.214844 27.945313 22.359375-31.328125 31.328125h-20.6875v16h16v16h16v-20.6875l88-88v12.6875h16v-40h-40v16h12.6875l-45.28125 45.28125-30.421875-24.335938 8.726563-13.097656-17.421876-24.390625c46.949219-3.296875 90.664063-23.105469 124.269532-56.714843 28.015625-28.007813 43.441406-65.238282 43.441406-104.855469 0-9.734375-.96875-19.519531-2.878906-29.078125l-5.066406-25.3125c4.953124-4.054688 7.945312-10.152344 7.945312-16.816406zm-416 258.230469h-8c-4.414062 0-8-3.585938-8-8v-8h8c4.414062 0 8 3.585938 8 8zm32 56c0 4.414062-3.585938 8-8 8h-8v-8c0-4.414062 3.585938-8 8-8h8zm0-40v-8c0-4.414062 3.585938-8 8-8h8v8c0 4.414062-3.585938 8-8 8zm96-232c0-22.054688 17.945312-40 40-40s40 17.945312 40 40v72h-80zm-27.425781 2.992188c3.640625-1.375 7.480469-2.273438 11.425781-2.6875v7.4375c-4.296875-.398438-8.214844-2.0625-11.425781-4.75zm11.425781 85.007812h112v16h-112zm110.871094 32c-2.117188 14.769531-7.230469 28.6875-14.871094 41.0625v-41.0625zm-30.871094 0v61.152344c-4.855469 4.777344-10.214844 9.105468-16 12.945312v-74.097656zm-32 0v74.097656c-5.785156-3.839844-11.144531-8.167968-16-12.945312v-61.152344zm-32 0v41.0625c-7.632812-12.375-12.753906-26.292969-14.871094-41.0625zm-192-162.230469c-.007812-3.792969 3.96875-6.699219 7.585938-5.472656l88.414062 29.472656v5.878907c0 42.3125 25.519531 80.832031 64 97.664062v15.582031l-9.566406-3.191406c-42.128906-14.039063-70.433594-53.304687-70.433594-97.703125v-5.414062l-76.375-30.554688c-2.199219-.878906-3.625-2.984375-3.625-5.351562zm32 34.847657v7.382812h-28.640625l3.488281-17.449219zm-32 37.269531c0-4.628907.289062-9.269531.777344-13.886719h31.222656c0 3.398438.28125 6.726562.511719 10.0625l-32.175781 10.730469c-.121094-2.304688-.335938-4.585938-.335938-6.90625zm2.121094 23.167969 32.390625-10.789063c1.128906 6.078125 2.585937 12.039063 4.457031 17.824219l-29.871094 17.917968c-3.136718-8.039062-5.472656-16.375-6.976562-24.953124zm13.679687 39.59375 29.078125-17.449219c2.289063 5.046875 4.890625 9.921875 7.730469 14.640625l-20.097656 26.710937c-6.464844-7.421875-12.113281-15.390625-16.710938-23.902343zm52.648438 54.6875c-8.679688-5.625-16.863281-12.105469-24.59375-19.265626l18.265625-24.269531c5 6.472657 10.527344 12.480469 16.535156 18.007813zm35.550781 17.617187c-7.382812-2.695313-14.632812-5.746094-21.601562-9.410156l9.242187-23.09375c3.976563 2.886719 8.09375 5.582031 12.359375 8.0625zm32 8.429687c-5.40625-.894531-10.734375-2.046874-16-3.421874v-21.296876c5.175781 2.191407 10.542969 3.984376 16 5.566407zm-88-157.382812v-16.984375l16.128906 6.449219c2.222656 49.039062 34.3125 91.78125 81.238282 107.421875l15.441406 5.152343c.953125 8.761719 2.808594 17.289063 5.503906 25.472657-66.054688-4.984375-118.3125-60.199219-118.3125-127.511719zm104 141.832031c6.863281 1.160157 13.878906 1.871094 21.03125 2.015625.167969.34375.328125.695313.503906 1.039063l-10.695312 14.976562c-3.632813-.054687-7.238282-.253906-10.839844-.527343zm11.265625 72.65625-9.546875-14.328125 28.816406-40.34375c5.074219 7.183594 10.90625 13.847656 17.464844 19.847656v22.582032zm24.253906 31.910157 22.144531-27.671876 3.015626 2.015626-16.070313 32.152343zm36.480469 26.058593-14.207031-10.152343 14.207031-28.417969zm-8-68.738281v-11.757812c3.984375 2.589843 8.097656 5.03125 12.425781 7.199218l3.574219 1.785156 3.574219-1.792968c4.328125-2.160156 8.441406-4.609375 12.425781-7.199219v11.765625l-16 10.664062zm24 68.738281v-38.570312l14.207031 28.417969zm27.390625-19.570312-16.070313-32.152344 3.015626-2.015625 22.144531 27.679688zm33.34375-38.414063-36.734375-12.234375v-22.582031c6.558594-5.992188 12.390625-12.664062 17.464844-19.847656l28.816406 40.34375zm11.265625-55.136718c-3.601562.273437-7.207031.472656-10.839844.527343l-10.695312-14.976562c.175781-.34375.328125-.695313.503906-1.039063 7.160156-.144531 14.167969-.855468 21.03125-2.015625zm32-5.375c-5.265625 1.375-10.59375 2.527343-16 3.421874v-19.152343c5.457031-1.582031 10.824219-3.375 16-5.566407zm16-5.007813v-24.441406c4.273438-2.480469 8.382812-5.175781 12.359375-8.0625l9.242187 23.09375c-6.96875 3.65625-14.21875 6.703125-21.601562 9.410156zm-62.3125-21.441406c2.703125-8.191407 4.550781-16.710938 5.503906-25.480469l15.441406-5.152344c46.925782-15.640625 79.015626-58.382812 81.238282-107.421875l16.128906-6.441406v16.984375c0 67.3125-52.257812 122.527344-118.3125 127.511719zm97.863281 3.824219-10.207031-25.527344c6.007812-5.527344 11.535156-11.535156 16.535156-18.007813l18.265625 24.269531c-7.71875 7.160157-15.90625 13.640626-24.59375 19.265626zm35.945313-30.785157-20.105469-26.710937c2.839844-4.71875 5.433594-9.59375 7.730469-14.640625l29.085937 17.449219c-4.597656 8.503906-10.246093 16.480468-16.710937 23.902343zm23.40625-38.535156-29.871094-17.925781c1.863281-5.792969 3.328125-11.746094 4.457031-17.824219l32.390625 10.796875c-1.503906 8.578125-3.839844 16.914062-6.976562 24.953125zm8.761718-41.230469-32.175781-10.722656c.230469-3.335938.511719-6.664062.511719-10.0625h31.222656c.488282 4.617188.777344 9.257812.777344 13.886719 0 2.320312-.214844 4.601562-.335938 6.898437zm-31.664062-36.785156v-7.382812l25.152344-10.066407 3.488281 17.449219zm32-41.320312c0 2.367187-1.425781 4.472656-3.625 5.351562l-76.375 30.554688v5.414062c0 44.398438-28.304688 83.664062-70.433594 97.703125l-9.566406 3.191406v-15.582031c38.480469-16.832031 64-55.351562 64-97.664062v-5.878907l88.425781-29.472656c3.519531-1.199219 7.574219 1.679687 7.574219 5.472656zm0 0"/><path d="m220.425781 56.839844 7.148438 14.320312 12.425781-6.214844v7.054688h16v-8h8v-16h-25.886719zm0 0"/></svg>