<?xml version="1.0" encoding="utf-8"?>
<!-- Generator: Adobe Illustrator 15.1.0, SVG Export Plug-In . SVG Version: 6.00 Build 0)  -->
<!DOCTYPE svg PUBLIC "-//W3C//DTD SVG 1.1//EN" "http://www.w3.org/Graphics/SVG/1.1/DTD/svg11.dtd">
<svg version="1.1" id="Layer_1" xmlns="http://www.w3.org/2000/svg" xmlns:xlink="http://www.w3.org/1999/xlink" x="0px" y="0px"
	 width="612px" height="792px" viewBox="0 0 612 792" enable-background="new 0 0 612 792" xml:space="preserve">
<path fill-rule="evenodd" clip-rule="evenodd" stroke="#000000" stroke-width="2.9999" stroke-linecap="round" stroke-linejoin="round" stroke-miterlimit="22.9256" d="
	M500.938,138.235c-10.194-23.461-29.055-49.53-55.93-68.212c-26.874-18.682-61.763-29.978-99.049-32.801
	c-37.287-2.824-76.971,2.824-107.498,13.684c-30.527,10.861-51.896,26.935-64.543,39.75s-16.571,22.374-17.662,30.845
	s0.653,15.857-2.834,24.328c-3.489,8.471-12.212,18.029-19.843,28.021s-14.173,20.418-21.587,31.713
	c-7.413,11.295-15.699,23.459-18.315,33.886c-2.617,10.426,0.435,19.115,2.616,25.415c2.18,6.299,3.489,10.208,1.308,16.725
	s-7.85,15.64-17.007,26.066c-9.159,10.426-21.806,22.156-30.091,32.365c-8.286,10.208-12.211,18.897-13.519,24.762
	c-1.309,5.865,0,8.906,4.361,11.295c4.36,2.389,11.774,4.126,17.662,5.647c5.887,1.521,10.248,2.824,11.338,6.951
	s-1.09,11.078-1.308,17.377c-0.218,6.299,1.525,11.946,0.871,16.074c-0.654,4.127-3.706,6.733-5.014,11.512
	c-1.309,4.778-0.873,11.729-0.218,18.464c0.654,6.733,1.526,13.249-0.436,20.635c-1.963,7.385-6.759,15.641-6.759,24.111
	s4.796,17.16,13.314,22.674c8.517,5.514,20.753,7.855,39.177,11.088c18.423,3.231,43.034,7.355,56.048,9.501
	c13.013,2.145,14.43,2.311,13.446,7.498c-0.984,5.188-4.367,15.398-6.275,21.155s-2.34,7.059-5.336,9.068
	c-2.997,2.01-8.556,4.724-13.245,6.787c-4.688,2.064-8.504,3.476-12.046,7.491c-3.542,4.016-6.81,10.635-15.203,31.377
	c-8.393,20.74-21.913,55.603-32.924,81.94c-11.012,26.337-19.516,44.149-16.2,47.581c3.314,3.432,18.448-7.518,40.696-23.627
	c22.249-16.108,51.611-37.377,98.939-61.605c47.327-24.23,112.619-51.422,158.466-64.801c45.846-13.38,72.247-12.948,83.094-16.207
	c10.848-3.259,6.144-10.206,2.482-22.804c-3.661-12.597-6.277-30.843-10.421-42.355c-4.143-11.512-9.812-16.291-15.48-19.114
	c-5.67-2.824-11.339-3.693-14.174-9.558c-2.834-5.865-2.834-16.726-0.653-24.111c2.18-7.386,6.541-11.295,10.248-11.512
	c3.706-0.218,6.759,3.258,11.338,11.512s10.685,21.287,17.172,34.974c5.267,11.111,10.786,22.654,15.375,34.167
	c-1.122,1.346-1.928,2.653-2.566,3.962c-1.854,3.802-2.289,7.603-1.417,13.576s3.052,14.119,5.179,20.093
	c2.126,5.974,4.197,9.774,9.104,11.458c0.63,0.216,1.306,0.396,2.028,0.544c0.373,3.226,0.717,6.647,1.033,10.305
	c2.07,23.895,2.989,57.765,10.756,82.517c7.766,24.753,22.378,40.389,36.443,52.985c14.065,12.596,27.585,22.153,32.162,23.024
	s0.214-6.945-1.641-14.437c-1.855-7.492-1.201-14.66,1.717-24.499c2.917-9.84,8.098-22.351,8.371-40.325
	c0.271-17.975-4.363-41.413-11.914-59.486c-7.552-18.073-18.018-30.78-22.977-41.154c-0.218-0.454-0.425-0.905-0.621-1.353
	c6.439-4.787,7.411-10.813,6.785-19.128c-0.654-8.689-3.052-19.876-5.124-27.75c-2.071-7.874-3.815-12.436-7.304-14.336
	c-1.26-0.687-2.746-1.025-4.57-1.028c-0.956-5.59-1.933-11.301-2.842-16.947c-2.835-17.595-5.015-34.537-2.834-51.262
	c2.18-16.727,8.722-33.234,15.48-49.743c6.76-16.509,13.737-33.017,13.52-59.952c-0.219-26.935-7.633-64.296-15.481-87.972
	c-7.851-23.676-16.136-33.668-21.043-49.09C512.657,182.549,511.132,161.696,500.938,138.235z"/>
</svg>
