<?xml version="1.0" encoding="iso-8859-1"?>
<!-- Generator: Adobe Illustrator 19.0.0, SVG Export Plug-In . SVG Version: 6.00 Build 0)  -->
<svg version="1.1" id="Capa_1" xmlns="http://www.w3.org/2000/svg" xmlns:xlink="http://www.w3.org/1999/xlink" x="0px" y="0px"
	 viewBox="0 0 512 512" style="enable-background:new 0 0 512 512;" xml:space="preserve">
<rect x="7.604" y="138.007" style="fill:#D9CCBC;" width="496.792" height="324.436"/>
<rect x="68.436" y="462.442" style="fill:#5D41B8;" width="375.129" height="40.554"/>
<circle style="fill:#F25462;" cx="442.551" cy="212.018" r="30.416"/>
<path style="fill:#C0AB91;" d="M463.527,258.154c17.51-7.994,29.716-25.658,29.716-46.131c0-27.952-22.741-50.693-50.693-50.693
	s-50.693,22.741-50.693,50.693c0,20.473,12.206,38.136,29.716,46.131c-17.51,7.994-29.716,25.658-29.716,46.131
	c0,27.952,22.741,50.693,50.693,50.693s50.693-22.741,50.693-50.693C493.244,283.812,481.038,266.149,463.527,258.154z"/>
<g>
	<circle style="fill:#F25462;" cx="442.551" cy="304.28" r="30.416"/>
	<path style="fill:#F25462;" d="M68.436,168.428c-16.799,0-30.416,13.617-30.416,30.416v202.772
		c0,16.799,13.617,30.416,30.416,30.416h55.762V168.428H68.436z"/>
</g>
<path style="fill:#FCA500;" d="M352.317,168.428h-55.762v263.604h55.762c16.799,0,30.416-13.617,30.416-30.416V198.843
	C382.733,182.045,369.116,168.428,352.317,168.428z"/>
<rect x="124.198" y="168.422" style="fill:#FDD844;" width="86.178" height="263.604"/>
<rect x="210.376" y="168.422" style="fill:#6DCEAD;" width="86.178" height="263.604"/>
<path style="fill:#EF1E24;" d="M58.297,421.893v-217.98c0-8.399,6.809-15.208,15.208-15.208h50.693v-20.277H68.436
	c-16.799,0-30.416,13.617-30.416,30.416v202.772c0,13.726,9.094,25.324,21.584,29.109C58.757,427.929,58.297,424.965,58.297,421.893
	z"/>
<rect x="124.198" y="168.422" style="fill:#FDBF44;" width="86.178" height="20.277"/>
<rect x="210.376" y="168.422" style="fill:#5FB2B2;" width="86.178" height="20.277"/>
<path style="fill:#BA7005;" d="M352.317,168.428h-55.762v20.277h84.44C376.819,176.892,365.559,168.428,352.317,168.428z"/>
<rect x="7.604" y="442.165" style="fill:#C0AB91;" width="496.792" height="20.277"/>
<rect x="68.436" y="462.442" style="fill:#45339E;" width="375.129" height="20.277"/>
<path style="fill:#FFFFFF;" d="M89.22,282.994H74.012v-15.208H89.22V282.994z M89.22,252.578H74.012v-50.693H89.22V252.578z"/>
<circle style="fill:#BAF038;" cx="442.551" cy="212.018" r="30.416"/>
<path d="M0,130.408v339.644h512V130.408H0z M496.792,454.843H15.208V145.616h481.584V454.843z"/>
<path d="M68.436,439.635h283.881c20.965,0,38.02-17.055,38.02-38.02V198.843c0-20.965-17.055-38.02-38.02-38.02H68.436
	c-20.965,0-38.02,17.055-38.02,38.02v202.772C30.416,422.58,47.471,439.635,68.436,439.635z M45.624,198.843
	c0-12.579,10.233-22.812,22.812-22.812h283.881c12.578,0,22.812,10.233,22.812,22.812v202.772c0,12.579-10.234,22.812-22.812,22.812
	H68.436c-12.579,0-22.812-10.233-22.812-22.812V198.843z"/>
<path d="M442.551,250.043c20.965,0,38.02-17.055,38.02-38.02s-17.055-38.02-38.02-38.02s-38.02,17.055-38.02,38.02
	S421.586,250.043,442.551,250.043z M465.362,212.024c0,12.579-10.234,22.812-22.812,22.812s-22.812-10.233-22.812-22.812
	c0-3.517,0.802-6.851,2.229-9.829l20.058,20.058l10.754-10.753l-20.059-20.059c2.978-1.428,6.311-2.229,9.828-2.229
	C455.128,189.212,465.362,199.445,465.362,212.024z"/>
<path d="M442.551,342.305c20.965,0,38.02-17.055,38.02-38.02s-17.055-38.02-38.02-38.02s-38.02,17.055-38.02,38.02
	S421.586,342.305,442.551,342.305z M465.362,304.285c0,12.579-10.234,22.812-22.812,22.812s-22.812-10.233-22.812-22.812
	c0-3.517,0.802-6.851,2.229-9.829l20.058,20.058l10.754-10.753l-20.059-20.059c2.978-1.428,6.311-2.229,9.828-2.229
	C455.128,281.473,465.362,291.706,465.362,304.285z"/>
<rect x="466.376" y="423.916" width="15.208" height="15.208"/>
<rect x="466.376" y="363.084" width="15.208" height="15.208"/>
<rect x="466.376" y="393.5" width="15.208" height="15.208"/>
<rect x="435.96" y="423.916" width="15.208" height="15.208"/>
<rect x="435.96" y="363.084" width="15.208" height="15.208"/>
<rect x="435.96" y="393.5" width="15.208" height="15.208"/>
<rect x="405.545" y="363.084" width="15.208" height="15.208"/>
<rect x="405.545" y="393.5" width="15.208" height="15.208"/>
<rect x="405.545" y="423.916" width="15.208" height="15.208"/>
<rect x="148.014" y="51.496" transform="matrix(-0.5 -0.866 0.866 -0.5 263.6076 270.3919)" width="123.688" height="15.208"/>
<rect x="294.734" y="-3.09" transform="matrix(-0.866 -0.5 0.5 -0.866 534.7894 260.8091)" width="15.208" height="123.688"/>
<rect x="202.772" y="292.62" width="15.208" height="15.208"/>
<rect x="172.356" y="292.62" width="15.208" height="15.208"/>
<rect x="233.188" y="292.62" width="15.208" height="15.208"/>
<polygon points="435.96,495.398 76.04,495.398 76.04,482.725 60.832,482.725 60.832,510.606 451.168,510.606 451.168,482.725 
	435.96,482.725 "/>
<g>
</g>
<g>
</g>
<g>
</g>
<g>
</g>
<g>
</g>
<g>
</g>
<g>
</g>
<g>
</g>
<g>
</g>
<g>
</g>
<g>
</g>
<g>
</g>
<g>
</g>
<g>
</g>
<g>
</g>
</svg>
