<svg height="504pt" viewBox="-30 0 504 504.00066" width="504pt" xmlns="http://www.w3.org/2000/svg"><path d="m222.472656 504c-101.203125.242188-190.898437-65.097656-221.703125-161.496094-1.023437-3.183594-1.023437-6.609375 0-9.796875 31.011719-96.246093 120.582031-161.492187 221.703125-161.492187 101.117188 0 190.6875 65.246094 221.703125 161.492187 1.023438 3.1875 1.023438 6.613281 0 9.796875-30.808593 96.398438-120.503906 161.738282-221.703125 161.496094zm-189.59375-166.394531c28.25 80.507812 104.269532 134.394531 189.59375 134.394531 85.320313 0 161.339844-53.886719 189.59375-134.394531-28.257812-80.507813-104.273437-134.390625-189.59375-134.390625-85.324218 0-161.339844 53.882812-189.59375 134.390625zm0 0"/><path d="m308.605469 337.605469c0 47.570312-38.5625 86.136719-86.132813 86.136719-47.574218 0-86.136718-38.566407-86.136718-86.136719 0-47.570313 38.5625-86.132813 86.136718-86.132813 47.570313 0 86.132813 38.5625 86.132813 86.132813zm0 0" fill="#4370ff"/><path d="m319.511719 369.601562c-15.71875 47.640626-63.699219 76.824219-113.234375 68.867188-49.53125-7.957031-85.960938-50.699219-85.964844-100.867188h32c-.011719 32.402344 22.175781 60.597657 53.675781 68.199219 31.5 7.605469 64.109375-7.359375 78.882813-36.199219zm0 0"/><path d="m324.632812 337.601562h-32c.007813-32.40625-22.179687-60.597656-53.679687-68.203124-31.5-7.605469-64.109375 7.359374-78.882813 36.203124h-34.640624c15.71875-47.644531 63.703124-76.828124 113.234374-68.871093 49.535157 7.957031 85.960938 50.699219 85.96875 100.871093zm0 0"/><path d="m260.71875 337.605469c0 21.125-17.125 38.25-38.246094 38.25-21.125 0-38.25-17.125-38.25-38.25 0-21.121094 17.125-38.246094 38.25-38.246094 21.121094 0 38.246094 17.125 38.246094 38.246094zm0 0"/><path d="m206.472656 0h32v113.679688h-32zm0 0"/><path d="m19.742188 90.601562 22.628906-22.628906 80.382812 80.382813-22.628906 22.628906zm0 0"/><path d="m322.195312 148.351562 80.390626-80.375 22.625 22.628907-80.390626 80.375zm0 0"/></svg>