<?xml version="1.0" encoding="utf-8"?>
<!-- Generator: Adobe Illustrator 23.1.1, SVG Export Plug-In . SVG Version: 6.00 Build 0)  -->
<svg version="1.1" id="Layer_1" xmlns="http://www.w3.org/2000/svg" xmlns:xlink="http://www.w3.org/1999/xlink" x="0px" y="0px"
	 viewBox="0 0 640 640" style="enable-background:new 0 0 640 640;" xml:space="preserve">
<path d="M371.69,323.33c27.12-48.3,56.46-95.35,88.16-140.88c1.8-2.63,3.74-5.54,2.63-8.72c-1.11-2.91-4.29-4.43-7.33-3.87
	c-5.4,0.97-8.3,5.54-11.07,9.83c-28.79,46.78-57.43,93.55-86.22,140.19c1.25-77.5,2.63-155.14-4.29-232.22
	c-0.42-4.01-1.25-8.86-4.98-10.52c-3.87,16.88-3.6,34.32-3.32,51.62c0.69,49.27,1.38,98.53,2.08,147.66
	c-3.87-8.03-5.54-10.66-8.86-15.36c-3.74-6.92-11.76-13.29-19.79-7.89c-2.91,1.94-4.84,4.98-5.81,8.44
	c-2.63,10.1-3.32,13.01-5.95,24.91c-3.18-23.66-7.89-47.05-13.84-70.03c-1.38-5.4-3.32-11.21-8.17-13.98
	c-5.12-2.91-11.49,1.11-11.49,7.06c-0.14,53.7-0.28,107.39-2.77,161.09c-1.52,33.77-4.01,67.81-12.73,100.61
	c-14.12-60.62-25.74-121.65-34.87-183.23c-0.97-6.78-2.35-14.39-7.89-18.54c-6.23-4.71-15.22,0-15.36,7.75
	c-0.83,77.64-6.64,155.28-17.16,232.36c-0.69,5.4,5.26,9.55,9.83,6.5c4.43-2.77,5.4-8.44,6.09-13.56
	c8.58-65.74,10.66-132.16,12.73-198.32c7.89,41.93,15.64,83.87,23.53,125.8c3.6,19.1,7.2,38.2,14.53,56.19
	c1.94,4.71,7.61,6.92,12.04,4.43c4.84-2.63,6.92-8.03,8.44-13.15c8.72-27.82,10.79-57.16,12.32-86.36
	c2.49-48.99,3.32-97.98,2.49-146.97c11.21,30.03,14.95,62.83,10.93,94.52c-1.11,9.41-3.04,18.82-2.08,28.23
	c0.83,8.58,3.46,17.85,10.38,22.83c1.38,0.97,2.91,1.25,3.74,1.25c0.69,0,0.97,0.14,1.52,0.14c0.14,0,0.55,0,0.55,0.14
	c0.14,0.14,0.14,0.14,0.14,0.42c0.97,2.91,1.66,8.86,1.94,11.07c5.12,36.54,10.24,73.07,15.36,109.61
	c0.97,6.78,8.86,10.24,14.25,5.95c5.12-4.01,6.09-11.07,6.78-17.44c4.84-48.99,7.2-98.12,7.2-147.25
	c22.83,55.77,30.45,117.63,59.37,170.64c2.63,4.84,7.33,10.24,12.46,8.3c2.63-1.11,4.15-3.74,4.29-6.5
	c0.28-4.84-2.49-8.72-4.98-12.46c-13.98-21.31-21.45-46.22-28.79-70.72c-9.55-31.69-19.65-63.52-29.2-95.21
	c-1.25-4.15-3.6-11.49-3.46-11.76C365.05,335.24,369.62,326.93,371.69,323.33z M306.51,372.88c-0.69,0.14-1.66-1.94-2.08-4.57
	c-0.28-2.49-0.14-4.57,0.55-4.98l0.83,4.71L306.51,372.88C306.65,372.88,306.65,372.88,306.51,372.88z M337.09,471.28
	c0,0-0.69,6.64-1.25,7.61c-0.14,0.28-0.42-0.97-0.69-2.49c-3.46-26.99-7.2-54.8-10.79-81.65c-0.14-1.52-0.69-4.43-0.42-4.71
	c0.14-0.42,2.08-1.8,3.04-2.63c5.26-4.71,10.38-9.41,15.64-14.12L337.09,471.28z M335.29,359.87c-3.87,5.4-8.86,9.83-13.15,14.81
	c-2.63-16.33-5.26-32.66-7.75-48.85c-0.42-3.04-0.97-5.95-0.97-9c0-5.26,1.38-10.38,2.91-15.5c3.04-10.79,6.09-21.59,9-32.25
	c5.67,9.41,10.24,19.37,13.7,29.75C345.81,318.77,347.75,342.57,335.29,359.87z"/>
</svg>
