<?xml version="1.0" standalone="no"?>
<!DOCTYPE svg PUBLIC "-//W3C//DTD SVG 20010904//EN"
 "http://www.w3.org/TR/2001/REC-SVG-20010904/DTD/svg10.dtd">
<svg version="1.0" xmlns="http://www.w3.org/2000/svg"
 width="661.000000pt" height="661.000000pt" viewBox="0 0 661.000000 661.000000"
 preserveAspectRatio="xMidYMid meet">
<metadata>
Created by potrace 1.11, written by Peter Selinger 2001-2013
</metadata>
<g transform="translate(0.000000,661.000000) scale(0.100000,-0.100000)"
fill="#000000" stroke="none">
<path d="M215 5906 c-143 -44 -225 -165 -212 -312 7 -68 27 -117 75 -177 24
-30 29 -43 23 -60 -5 -12 -12 -44 -15 -71 -4 -27 -9 -53 -12 -58 -3 -4 -7 -20
-9 -35 -2 -16 -13 -75 -24 -133 -32 -166 -39 -243 -36 -425 5 -245 27 -382 96
-590 139 -417 398 -756 804 -1052 321 -233 739 -404 1125 -457 55 -8 140 -19
163 -21 12 -1 25 -3 30 -4 10 -1 -9 -30 -120 -183 -51 -70 -93 -133 -93 -140
0 -7 23 -45 50 -85 52 -76 59 -97 36 -110 -7 -4 -31 -22 -52 -40 -22 -17 -86
-69 -144 -115 -58 -45 -117 -93 -130 -106 -47 -44 -54 -44 -95 -2 -30 31 -34
39 -19 38 32 -3 127 47 167 87 21 21 50 61 65 89 26 50 27 56 29 254 l3 204
-197 -4 c-189 -3 -201 -4 -253 -29 -88 -41 -150 -113 -176 -204 -11 -37 -12
-33 -14 60 -1 55 -4 113 -6 129 -16 94 -106 200 -201 236 -49 18 -80 21 -245
23 l-188 2 0 -178 c0 -102 5 -198 12 -225 22 -90 88 -168 178 -210 48 -22 70
-26 178 -28 l123 -2 105 -107 c59 -58 104 -108 103 -109 -2 -2 -24 -8 -49 -15
-93 -25 -185 -119 -211 -216 -6 -22 -12 -122 -13 -223 l-1 -183 195 2 c221 2
257 11 340 85 42 38 100 141 100 177 0 12 63 -44 176 -157 97 -97 179 -176
182 -176 4 0 39 32 79 72 l72 72 -167 168 c-92 93 -168 172 -169 176 -2 8 339
280 359 287 7 2 26 -16 42 -41 29 -46 35 -48 91 -24 11 5 65 23 120 40 55 17
109 35 120 40 11 5 31 12 45 16 20 6 23 4 14 -7 -6 -8 -66 -82 -132 -166 -67
-84 -122 -154 -122 -156 0 -3 26 -23 58 -46 75 -55 564 -405 622 -446 25 -18
84 -59 130 -93 l84 -60 45 31 c25 18 50 36 56 40 5 5 127 91 270 193 143 102
269 192 280 200 11 8 56 40 100 71 147 104 146 103 136 121 -5 9 -63 84 -129
167 -67 82 -120 151 -118 152 1 2 83 -24 181 -57 120 -40 182 -56 190 -50 6 5
20 26 31 45 10 19 23 34 29 32 19 -6 364 -282 362 -289 -1 -4 -94 -100 -207
-213 l-204 -205 -138 0 -139 0 3 -107 3 -108 105 0 105 0 0 -105 0 -105 106
-1 106 -1 0 137 0 138 586 586 587 587 0 -83 0 -84 105 -1 c58 0 105 2 106 6
1 3 2 122 2 263 1 165 -2 259 -8 261 -5 2 -125 3 -265 3 l-255 -1 -3 -107 -3
-108 76 2 c41 1 77 -1 80 -3 2 -3 -129 -138 -292 -302 l-297 -296 -35 26 c-20
15 -38 30 -41 33 -3 3 -48 39 -100 80 -52 41 -97 77 -100 80 -3 3 -33 27 -67
53 l-63 48 37 57 c21 31 47 70 59 86 l22 29 -49 71 c-27 39 -78 111 -114 161
-68 94 -73 104 -52 101 34 -3 188 18 319 45 375 75 733 235 1029 458 391 296
630 614 769 1026 33 96 58 204 74 310 4 28 10 61 13 75 3 14 6 106 8 205 2
179 -5 267 -40 450 -10 50 -19 99 -21 110 -2 11 -12 59 -22 107 l-19 87 25 23
c13 13 37 49 52 81 25 51 28 68 25 135 -3 91 -21 137 -76 197 -54 58 -126 88
-209 88 -57 -1 -143 -27 -740 -227 -371 -124 -675 -226 -675 -226 -1 0 -1 -62
-1 -137 0 -185 -9 -270 -38 -384 -63 -249 -200 -468 -393 -631 -92 -78 -219
-158 -298 -187 -47 -18 -107 -23 -120 -10 -2 3 -5 239 -5 525 -1 588 -2 597
-75 749 -123 254 -360 411 -635 421 -224 7 -412 -66 -565 -220 -51 -51 -139
-174 -140 -195 -1 -3 -6 -15 -12 -26 -5 -11 -16 -36 -22 -56 -10 -33 -15 -36
-51 -37 -127 -5 -332 -88 -444 -179 -57 -46 -166 -165 -166 -181 0 -8 156
-112 169 -112 5 0 30 25 56 55 l47 56 42 -39 c55 -51 162 -103 240 -117 l61
-11 0 -319 0 -319 -44 -2 c-33 -1 -64 10 -138 48 -328 167 -555 460 -638 820
-22 98 -28 165 -29 335 l-1 152 -55 20 c-307 110 -1305 433 -1345 436 -27 1
-68 -3 -90 -9z m687 -402 c324 -108 588 -199 588 -202 3 -223 19 -336 72 -502
116 -364 361 -653 707 -835 l76 -40 1 -95 c0 -52 -1 -98 -3 -102 -5 -9 -181
52 -278 97 -44 20 -123 65 -175 100 -380 253 -604 670 -609 1131 l-1 80 -519
208 c-286 114 -525 214 -532 222 -7 9 -13 34 -13 56 0 47 29 78 72 78 15 0
291 -88 614 -196z m5469 177 c26 -21 32 -88 10 -114 -6 -9 -139 -66 -294 -128
-155 -61 -300 -120 -322 -129 -22 -9 -129 -52 -237 -95 l-198 -79 -1 -80 c-1
-136 -8 -191 -44 -336 -118 -471 -481 -839 -970 -983 l-50 -15 0 102 0 101 75
39 c407 209 687 597 760 1051 6 39 13 119 15 179 2 60 6 110 8 112 12 12 1167
392 1193 393 18 1 42 -7 55 -18z m-2922 -105 c193 -57 344 -222 379 -413 5
-29 9 -278 8 -555 l-1 -503 -530 0 -530 0 -2 505 c-2 404 1 518 12 565 49 211
210 369 420 413 58 12 184 6 244 -12z m-3094 -301 c22 -7 94 -36 160 -63 l120
-48 3 -50 3 -49 -188 0 c-182 0 -188 1 -187 20 1 19 13 90 18 110 2 6 7 29 11
53 9 48 6 47 60 27z m5959 -17 c3 -18 12 -67 21 -108 8 -41 15 -77 15 -80 0
-3 -86 -6 -190 -6 l-191 0 3 50 3 50 155 63 c85 34 160 62 166 63 6 0 14 -15
18 -32z m-559 -370 c-3 -199 -6 -240 -31 -368 -116 -591 -542 -1078 -1117
-1279 -48 -17 -98 -33 -110 -35 -121 -26 -221 -45 -263 -50 l-51 -6 27 108
c15 59 31 135 35 169 8 69 -8 58 180 121 158 53 250 95 371 172 428 268 693
701 741 1205 3 33 7 62 10 65 2 2 50 23 106 46 56 23 103 43 103 43 1 1 0 -86
-1 -191z m-4793 146 c51 -21 96 -40 99 -43 4 -3 9 -37 13 -76 8 -96 14 -125
42 -238 103 -415 364 -762 739 -982 106 -62 171 -91 359 -156 76 -26 140 -50
142 -51 1 -2 6 -28 9 -58 6 -50 46 -225 61 -263 4 -12 -1 -15 -23 -13 -15 2
-54 7 -85 11 -32 3 -60 6 -63 6 -2 0 -19 5 -37 10 -18 5 -46 12 -63 15 -60 10
-243 77 -340 124 -360 174 -660 485 -818 849 -36 83 -86 224 -92 262 -3 16
-12 57 -19 91 -23 100 -28 161 -32 361 -2 112 1 187 6 187 6 0 52 -16 102 -36z
m1596 -25 l0 -50 -31 7 c-36 7 -103 39 -111 53 -5 7 33 21 99 35 42 8 44 7 43
-45z m-1917 -196 c1 -21 2 -51 3 -67 l1 -29 -209 -70 c-147 -49 -210 -66 -215
-58 -7 10 -7 52 -2 219 l1 42 210 0 210 0 1 -37z m5750 0 c5 -162 3 -233 -6
-233 -13 0 -373 118 -401 132 -12 6 -20 18 -19 27 2 9 4 37 4 64 l1 47 210 0
210 0 1 -37z m-5690 -433 c16 -63 29 -116 29 -117 0 -3 -387 -233 -393 -233
-13 0 -104 319 -94 326 9 6 414 141 421 140 4 -1 21 -53 37 -116z m5476 41
c188 -63 191 -64 186 -90 -18 -102 -79 -301 -92 -301 -3 0 -15 6 -26 14 -11 7
-40 25 -65 39 -25 14 -85 50 -135 81 -49 30 -105 63 -123 72 -18 9 -34 19 -36
23 -3 4 44 211 53 238 1 2 40 -10 238 -76z m-5312 -466 l48 -91 -134 -177
-134 -177 -25 32 c-105 131 -203 288 -185 295 6 2 91 53 190 113 99 59 183
105 186 102 3 -4 28 -48 54 -97z m5167 -33 c81 -48 148 -92 148 -98 0 -16
-143 -229 -185 -275 l-33 -37 -126 168 c-69 92 -128 175 -132 183 -3 8 6 32
19 54 13 21 36 62 51 91 l27 53 42 -26 c23 -14 108 -64 189 -113z m-2009 -32
l27 0 0 -105 0 -105 -744 0 -745 0 -3 48 c-2 26 -1 73 0 104 l4 57 41 3 c31 2
1240 1 1420 -2z m-2824 -387 l62 -62 -67 -168 c-36 -92 -67 -169 -68 -170 -6
-7 -230 163 -299 228 l-29 26 121 162 121 162 49 -58 c26 -32 76 -86 110 -120z
m4492 16 l122 -162 -44 -39 c-83 -73 -268 -210 -279 -206 -7 2 -41 77 -76 167
l-65 164 58 56 c58 57 145 156 151 172 2 5 5 9 8 9 2 0 58 -73 125 -161z
m-2926 -61 c3 -3 4 -124 3 -269 l-3 -264 -48 93 c-26 51 -61 134 -78 183 -39
118 -70 257 -57 261 16 6 177 2 183 -4z m431 -485 l2 -491 -33 19 c-18 11 -66
48 -106 82 l-74 63 0 405 c0 307 3 405 12 409 7 3 54 5 105 5 l93 -1 1 -491z
m425 482 c1 -5 2 -189 3 -409 l1 -398 -54 -47 c-29 -25 -77 -63 -107 -84 l-54
-39 0 490 c0 318 4 492 10 494 25 8 200 2 201 -7z m405 6 c16 -1 -18 -155 -58
-270 -31 -90 -117 -265 -125 -257 -4 4 -7 401 -4 506 1 25 2 25 89 24 48 -1
92 -2 98 -3z m-2428 -430 c1 -89 0 -161 -3 -161 -12 0 -137 51 -207 84 l-76
37 35 87 c19 48 46 117 60 154 l25 66 82 -53 81 -53 3 -161z m3625 149 c25
-63 53 -132 62 -153 l15 -37 -74 -35 c-89 -41 -196 -85 -208 -85 -4 0 -8 72
-8 160 l0 160 83 54 c45 29 83 53 83 52 1 -1 22 -53 47 -116z m-3290 -141 l93
-31 0 -124 0 -124 -25 0 c-26 0 -80 11 -154 31 l-37 10 1 140 c0 119 3 140 15
135 8 -3 56 -20 107 -37z m2864 -99 l0 -140 -36 -10 c-39 -10 -79 -18 -126
-26 -16 -3 -35 -6 -40 -8 -6 -2 -10 43 -10 124 l0 128 100 35 c55 19 103 35
106 36 3 0 6 -62 6 -139z m-2417 3 c41 -4 90 -7 108 -7 18 0 32 -5 32 -12 0
-7 -30 -56 -67 -108 l-68 -96 -63 2 c-35 2 -67 5 -72 8 -7 5 -13 109 -11 204
1 27 3 28 34 22 17 -4 66 -10 107 -13z m1990 -98 c0 -63 -3 -115 -7 -116 -5 0
-37 -3 -73 -5 l-65 -4 -45 65 c-25 36 -55 78 -67 93 -33 39 -30 57 10 58 64 1
201 14 205 19 3 3 14 5 24 5 16 0 18 -10 18 -115z m-1679 -182 c23 -32 75 -92
115 -133 l73 -75 -2 -150 -2 -150 -243 -82 -243 -81 -59 88 c-33 49 -61 93
-62 98 -2 7 371 542 378 542 1 0 21 -26 45 -57z m1449 -188 c90 -126 174 -244
186 -260 l23 -31 -61 -92 c-34 -51 -69 -92 -77 -92 -9 0 -119 35 -246 78
l-230 77 -3 149 -3 148 78 82 c43 45 96 105 118 134 21 28 42 49 46 44 3 -4
79 -110 169 -237z m-3133 -88 c13 -6 30 -21 39 -35 20 -30 27 -147 10 -160
-15 -12 -116 -8 -142 6 -41 22 -55 48 -60 116 -3 37 -2 71 2 77 7 13 120 10
151 -4z m2248 -189 l49 -27 71 38 c38 21 87 48 108 60 l37 23 -2 -78 -3 -79
-100 -67 c-54 -38 -104 -68 -110 -68 -6 0 -56 30 -110 68 l-100 67 -3 78 -3
79 58 -33 c32 -18 80 -46 108 -61z m-1554 -17 c12 -2 2 -137 -12 -159 -21 -33
-66 -50 -135 -50 l-62 0 1 66 c0 112 38 149 144 146 32 -1 61 -2 64 -3z m1331
-263 c14 -12 3 -38 -91 -224 l-106 -211 -58 39 c-35 24 -56 45 -53 53 7 19
277 355 285 355 4 0 14 -6 23 -12z m717 -165 c78 -97 141 -180 141 -183 0 -4
-25 -26 -55 -48 -38 -29 -57 -37 -62 -29 -4 7 -54 103 -110 214 -89 178 -99
204 -85 213 10 5 20 10 24 10 4 0 70 -80 147 -177z m-551 -283 l0 -251 -32 24
c-17 13 -47 35 -66 48 -20 14 -48 34 -63 45 l-26 21 90 182 c49 99 91 181 93
181 2 0 4 -113 4 -250z m306 78 c47 -95 87 -178 88 -185 3 -11 -19 -28 -129
-106 l-53 -37 0 250 c0 137 2 250 4 250 3 0 43 -78 90 -172z m-2014 -22 c3
-10 3 -46 0 -79 -5 -52 -10 -64 -38 -86 -27 -23 -41 -27 -102 -28 l-70 0 0 64
c0 112 38 151 148 149 47 -1 58 -4 62 -20z"/>
<path d="M3058 5219 c-133 -67 -126 -51 -69 -164 47 -93 38 -90 127 -45 43 22
79 40 80 40 0 0 1 -19 2 -42 1 -23 4 -43 6 -46 3 -2 49 -4 103 -4 l98 0 3 51
c3 55 -1 52 75 55 l32 1 0 105 0 105 -170 2 -170 1 -117 -59z"/>
</g>
</svg>
