<?xml version="1.0" encoding="UTF-8"?><svg xmlns="http://www.w3.org/2000/svg" xmlns:xlink="http://www.w3.org/1999/xlink" version="1.1" id="Layer_1" x="0px" y="0px" viewBox="0 0 64 64" xml:space="preserve"><style type="text/css">.st0{fill:url(#SVGID_1_);} .st1{fill:#8FE8F7;} .st2{fill:url(#SVGID_2_);} .st3{opacity:0.1;fill:#333333;} .st4{fill:url(#SVGID_3_);} .st5{fill:url(#SVGID_4_);} .st6{fill:url(#SVGID_5_);} .st7{fill:url(#SVGID_6_);} .st8{fill:url(#SVGID_7_);} .st9{fill:url(#SVGID_8_);} .st10{fill:url(#SVGID_9_);} .st11{fill:url(#SVGID_10_);} .st12{fill:url(#SVGID_11_);} .st13{opacity:0.3;fill:#FFFFFF;} .st14{fill:url(#SVGID_12_);} .st15{fill:url(#SVGID_13_);} .st16{fill:#FFFFFF;} .st17{fill:url(#SVGID_14_);} .st18{opacity:0.15;fill:#FFFFFF;}</style><linearGradient id="SVGID_1_" gradientUnits="userSpaceOnUse" x1="32" y1="67.75" x2="32" y2="-2.3303"><stop offset="0" stop-color="#02CF98"/><stop offset="1" stop-color="#02A3A9"/></linearGradient><path class="st0" d="M42.7 2.9H21.3c-3.8 0-7.3 2-9.2 5.3L1.4 26.7C-.5 30-.5 34 1.4 37.3l10.7 18.5c1.9 3.3 5.4 5.3 9.2 5.3h21.4c3.8 0 7.3-2 9.2-5.3l10.7-18.5c1.9-3.3 1.9-7.3 0-10.6L51.9 8.2c-1.9-3.3-5.4-5.3-9.2-5.3z" fill="url(#SVGID_1_)"/><path class="st3" d="M62.6 26.7l-4.6-8C56.6 38.4 40.1 54 20 54c-3.3 0-6.5-.4-9.6-1.2l1.8 3c1.9 3.3 5.4 5.3 9.2 5.3h21.4c3.8 0 7.3-2 9.2-5.3l10.7-18.5c1.8-3.3 1.8-7.3-.1-10.6z" fill="#333" opacity="0.1"/><ellipse cx="19" cy="35.3" rx="5" ry="6.1"/><ellipse cx="45" cy="35.3" rx="5" ry="6.1"/><path d="M41 51H23c-1.1 0-2-.9-2-2s.9-2 2-2h18c1.1 0 2 .9 2 2s-.9 2-2 2z"/><path d="M32 35c-14.6 0-24.9-9.1-25.3-9.5-.8-.7-.9-2-.1-2.8.7-.8 2-.9 2.8-.2.1.1 9.6 8.5 22.6 8.5 13.1 0 22.6-8.4 22.7-8.5.8-.7 2.1-.7 2.8.1.7.8.7 2.1-.1 2.8-.5.5-10.8 9.6-25.4 9.6z"/><ellipse class="st13" cx="24.5" cy="8.3" rx="7.5" ry="3.3" fill="#FFF" opacity="0.3"/><metadata><rdf:RDF xmlns:rdf="http://www.w3.org/1999/02/22-rdf-syntax-ns#" xmlns:rdfs="http://www.w3.org/2000/01/rdf-schema#" xmlns:dc="http://purl.org/dc/elements/1.1/"><rdf:Description about="https://iconscout.com/legal#licenses" dc:title="reactions-" dc:description="reactions-" dc:publisher="Iconscout" dc:date="2018-07-15" dc:format="image/svg+xml" dc:language="en"><dc:creator><rdf:Bag><rdf:li>Irvan Kurnianto Rhomadhani</rdf:li></rdf:Bag></dc:creator></rdf:Description></rdf:RDF></metadata></svg>