<?xml version="1.0" encoding="UTF-8"?><svg xmlns="http://www.w3.org/2000/svg" xmlns:xlink="http://www.w3.org/1999/xlink" version="1.1" id="Layer_1" x="0px" y="0px" viewBox="0 0 64 64" xml:space="preserve"><style type="text/css">.st0{fill:url(#SVGID_1_);} .st1{fill:#8FE8F7;} .st2{fill:url(#SVGID_2_);} .st3{opacity:0.1;fill:#333333;} .st4{fill:url(#SVGID_3_);} .st5{fill:url(#SVGID_4_);} .st6{fill:url(#SVGID_5_);} .st7{fill:url(#SVGID_6_);} .st8{fill:url(#SVGID_7_);} .st9{fill:url(#SVGID_8_);} .st10{fill:url(#SVGID_9_);} .st11{fill:url(#SVGID_10_);} .st12{fill:url(#SVGID_11_);} .st13{opacity:0.3;fill:#FFFFFF;} .st14{fill:url(#SVGID_12_);} .st15{fill:url(#SVGID_13_);} .st16{fill:#FFFFFF;} .st17{fill:url(#SVGID_14_);} .st18{opacity:0.15;fill:#FFFFFF;}</style><linearGradient id="SVGID_1_" gradientUnits="userSpaceOnUse" x1="31.9982" y1="62.25" x2="31.9982" y2="7.4909"><stop offset="0" stop-color="#ED2E3B"/><stop offset="1" stop-color="#D5183B"/></linearGradient><path class="st0" d="M42.7 2.9H21.3c-3.8 0-7.3 2-9.2 5.3L1.4 26.7C-.5 30-.5 34 1.4 37.3l10.7 18.5c1.9 3.3 5.4 5.3 9.2 5.3h21.4c3.8 0 7.3-2 9.2-5.3l10.7-18.5c1.9-3.3 1.9-7.3 0-10.6L51.9 8.2c-1.9-3.3-5.4-5.3-9.2-5.3z" fill="url(#SVGID_1_)"/><path class="st3" d="M62.6 26.7l-4.6-8C56.6 38.4 40.1 54 20 54c-3.3 0-6.5-.4-9.6-1.2l1.8 3c1.9 3.3 5.4 5.3 9.2 5.3h21.4c3.8 0 7.3-2 9.2-5.3l10.7-18.5c1.8-3.3 1.8-7.3-.1-10.6z" fill="#333" opacity="0.1"/><path class="st16" d="M19.3 15.1H17c-2.2 0-4 1.8-4 4v10.5c0 2.2 1.8 4 4 4h2.3c2.2 0 4-1.8 4-4V19.1c0-2.2-1.8-4-4-4z" fill="#FFF"/><path class="st16" d="M49.7 25.8c-.6-.4-.8-1.2-.5-1.8.1-.3.2-.7.2-1.1 0-1.1-.6-2-1.5-2.5-.6-.3-1-.9-1-1.5v-.1c0-1.5-1.2-2.7-2.7-2.7H29.3s-1.7-.1-3.5 1.5c-.3.3-.5.8-.5 1.2v10.1c0 1.3.4 2.5 1.4 3.4.2.2.3.4.5.6.7 1 3.9 7.3 4.7 8.8.1.2.2.5.2.7v4.8c0 .4.2.8.5 1.1.3.3.8.6 1.4.4 1.2-.3 3.7-1.9 4.1-5.4.2-1.9.1-3.7-.1-5.1-.1-1 .7-1.9 1.7-1.9h7.9c1.6 0 2.8-1.3 2.8-2.8 0-.5-.2-1.1-.4-1.5-.4-.7-.3-1.5.2-2.1.5-.5.8-1.2.8-1.9 0-.8-.5-1.6-1.3-2.2z" fill="#FFF"/><ellipse class="st13" cx="24.5" cy="8.3" rx="7.5" ry="3.3" fill="#FFF" opacity="0.3"/><metadata><rdf:RDF xmlns:rdf="http://www.w3.org/1999/02/22-rdf-syntax-ns#" xmlns:rdfs="http://www.w3.org/2000/01/rdf-schema#" xmlns:dc="http://purl.org/dc/elements/1.1/"><rdf:Description about="https://iconscout.com/legal#licenses" dc:title="reactions-" dc:description="reactions-" dc:publisher="Iconscout" dc:date="2018-07-15" dc:format="image/svg+xml" dc:language="en"><dc:creator><rdf:Bag><rdf:li>Irvan Kurnianto Rhomadhani</rdf:li></rdf:Bag></dc:creator></rdf:Description></rdf:RDF></metadata></svg>