<?xml version="1.0" encoding="UTF-8"?><svg xmlns="http://www.w3.org/2000/svg" xmlns:xlink="http://www.w3.org/1999/xlink" version="1.1" id="Layer_1" x="0px" y="0px" viewBox="0 0 64 64" xml:space="preserve"><style type="text/css">.st0{fill:url(#SVGID_1_);} .st1{fill:#8FE8F7;} .st2{fill:url(#SVGID_2_);} .st3{opacity:0.1;fill:#333333;} .st4{fill:url(#SVGID_3_);} .st5{fill:url(#SVGID_4_);} .st6{fill:url(#SVGID_5_);} .st7{fill:url(#SVGID_6_);} .st8{fill:url(#SVGID_7_);} .st9{fill:url(#SVGID_8_);} .st10{fill:url(#SVGID_9_);} .st11{fill:url(#SVGID_10_);} .st12{fill:url(#SVGID_11_);} .st13{opacity:0.3;fill:#FFFFFF;} .st14{fill:url(#SVGID_12_);} .st15{fill:url(#SVGID_13_);} .st16{fill:#FFFFFF;} .st17{fill:url(#SVGID_14_);} .st18{opacity:0.15;fill:#FFFFFF;}</style><linearGradient id="SVGID_1_" gradientUnits="userSpaceOnUse" x1="32" y1="67.75" x2="32" y2="-2.3303"><stop offset="0" stop-color="#02CF98"/><stop offset="1" stop-color="#02A3A9"/></linearGradient><path class="st0" d="M42.7 2.9H21.3c-3.8 0-7.3 2-9.2 5.3L1.4 26.7C-.5 30-.5 34 1.4 37.3l10.7 18.5c1.9 3.3 5.4 5.3 9.2 5.3h21.4c3.8 0 7.3-2 9.2-5.3l10.7-18.5c1.9-3.3 1.9-7.3 0-10.6L51.9 8.2c-1.9-3.3-5.4-5.3-9.2-5.3z" fill="url(#SVGID_1_)"/><path class="st3" d="M62.6 26.7l-4.6-8C56.6 38.4 40.1 54 20 54c-3.3 0-6.5-.4-9.6-1.2l1.8 3c1.9 3.3 5.4 5.3 9.2 5.3h21.4c3.8 0 7.3-2 9.2-5.3l10.7-18.5c1.8-3.3 1.8-7.3-.1-10.6z" fill="#333" opacity="0.1"/><path d="M32 54c10.4 0 19.2-6.9 22.1-16.4 1-3.3-1.5-6.6-5-6.6H14.9c-3.4 0-5.9 3.3-5 6.6C12.8 47.1 21.6 54 32 54z"/><path d="M52 27c-.4 0-.8-.1-1.1-.3-4.8-3.2-9.7 0-9.8 0-.9.6-2.2.4-2.8-.6-.6-.9-.4-2.2.6-2.8.3-.2 7.2-4.7 14.2 0 .9.6 1.2 1.9.6 2.8-.4.6-1.1.9-1.7.9z"/><path d="M24 27c-.4 0-.8-.1-1.1-.3-.2-.1-5-3.2-9.8 0-.9.6-2.2.4-2.8-.6-.6-.9-.4-2.2.6-2.8 7-4.7 13.9-.2 14.2 0 .9.6 1.2 1.9.6 2.8-.4.6-1.1.9-1.7.9z"/><ellipse class="st13" cx="24.5" cy="8.3" rx="7.5" ry="3.3" fill="#FFF" opacity="0.3"/><path class="st1" d="M7.8 34.9c-1.6 1.6-4.1 1.6-5.7 0-1.6-1.6-1.6-4.1 0-5.7 1.6-1.6 6.9-4.4 8.5-2.8s-1.2 7-2.8 8.5z" fill="#8FE8F7"/><path class="st1" d="M56.2 34.9c1.6 1.6 4.1 1.6 5.7 0 1.6-1.6 1.6-4.1 0-5.7-1.6-1.6-6.9-4.4-8.5-2.8-1.6 1.6 1.2 7 2.8 8.5z" fill="#8FE8F7"/><metadata><rdf:RDF xmlns:rdf="http://www.w3.org/1999/02/22-rdf-syntax-ns#" xmlns:rdfs="http://www.w3.org/2000/01/rdf-schema#" xmlns:dc="http://purl.org/dc/elements/1.1/"><rdf:Description about="https://iconscout.com/legal#licenses" dc:title="reactions-" dc:description="reactions-" dc:publisher="Iconscout" dc:date="2018-07-15" dc:format="image/svg+xml" dc:language="en"><dc:creator><rdf:Bag><rdf:li>Irvan Kurnianto Rhomadhani</rdf:li></rdf:Bag></dc:creator></rdf:Description></rdf:RDF></metadata></svg>