<?xml version="1.0" encoding="UTF-8"?><svg xmlns="http://www.w3.org/2000/svg" xmlns:xlink="http://www.w3.org/1999/xlink" version="1.1" id="Layer_1" x="0px" y="0px" viewBox="0 0 64 64" xml:space="preserve"><style type="text/css">.st0{fill:url(#SVGID_1_);} .st1{fill:#8FE8F7;} .st2{fill:url(#SVGID_2_);} .st3{opacity:0.1;fill:#333333;} .st4{fill:url(#SVGID_3_);} .st5{fill:url(#SVGID_4_);} .st6{fill:url(#SVGID_5_);} .st7{fill:url(#SVGID_6_);} .st8{fill:url(#SVGID_7_);} .st9{fill:url(#SVGID_8_);} .st10{fill:url(#SVGID_9_);} .st11{fill:url(#SVGID_10_);} .st12{fill:url(#SVGID_11_);} .st13{opacity:0.3;fill:#FFFFFF;} .st14{fill:url(#SVGID_12_);} .st15{fill:url(#SVGID_13_);} .st16{fill:#FFFFFF;} .st17{fill:url(#SVGID_14_);} .st18{opacity:0.15;fill:#FFFFFF;}</style><linearGradient id="SVGID_1_" gradientUnits="userSpaceOnUse" x1="32" y1="67.75" x2="32" y2="-2.3303"><stop offset="0" stop-color="#02CF98"/><stop offset="1" stop-color="#02A3A9"/></linearGradient><path class="st0" d="M42.7 2.9H21.3c-3.8 0-7.3 2-9.2 5.3L1.4 26.7C-.5 30-.5 34 1.4 37.3l10.7 18.5c1.9 3.3 5.4 5.3 9.2 5.3h21.4c3.8 0 7.3-2 9.2-5.3l10.7-18.5c1.9-3.3 1.9-7.3 0-10.6L51.9 8.2c-1.9-3.3-5.4-5.3-9.2-5.3z" fill="url(#SVGID_1_)"/><path class="st3" d="M62.6 26.7l-4.6-8C56.6 38.4 40.1 54 20 54c-3.3 0-6.5-.4-9.6-1.2l1.8 3c1.9 3.3 5.4 5.3 9.2 5.3h21.4c3.8 0 7.3-2 9.2-5.3l10.7-18.5c1.8-3.3 1.8-7.3-.1-10.6z" fill="#333" opacity="0.1"/><ellipse class="st13" cx="24.5" cy="8.3" rx="7.5" ry="3.3" fill="#FFF" opacity="0.3"/><linearGradient id="SVGID_2_" gradientUnits="userSpaceOnUse" x1="50.3614" y1="7.4908" x2="42.8614" y2="38.9908"><stop offset="0" stop-color="#ED2E3B"/><stop offset="1" stop-color="#FF600B"/></linearGradient><path class="st2" d="M58.4 20.9v-.2c.2-3.4-2.1-6.4-5.4-6.9-1.8-.3-3.6.3-4.9 1.4-1-1.4-2.5-2.5-4.3-2.7-3.3-.5-6.4 1.8-7.1 5.2v.4c-.1 1 0 1.9.2 2.8 1.4 6.5 8.8 12 8.8 12s8.7-3.4 11.8-9.2c.5-.8.8-1.7 1-2.6-.1 0-.1-.1-.1-.2z" fill="url(#SVGID_2_)"/><linearGradient id="SVGID_3_" gradientUnits="userSpaceOnUse" x1="14.0423" y1="4.0919" x2="20.0423" y2="42.4253"><stop offset="0" stop-color="#ED2E3B"/><stop offset="1" stop-color="#FF600B"/></linearGradient><path class="st4" d="M29.1 16.8v-.3c-.9-4-4.6-6.7-8.5-6.1-2.1.3-3.9 1.6-5 3.3-1.6-1.3-3.7-2-5.8-1.7-3.9.6-6.6 4.3-6.3 8.4 0 .1 0 .2.1.3v.2c.2 1.2.6 2.2 1.2 3.2 3.7 7 14 10.9 14 10.9s8.6-6.8 10.2-14.6c.3-1.1.4-2.2.2-3.4 0-.1-.1-.2-.1-.2z" fill="url(#SVGID_3_)"/><path d="M32 53c6.1 0 11.2-4.2 12.9-10 .6-2-.9-4-2.9-4H22c-2 0-3.5 2-2.9 4 1.7 5.8 6.8 10 12.9 10z"/><metadata><rdf:RDF xmlns:rdf="http://www.w3.org/1999/02/22-rdf-syntax-ns#" xmlns:rdfs="http://www.w3.org/2000/01/rdf-schema#" xmlns:dc="http://purl.org/dc/elements/1.1/"><rdf:Description about="https://iconscout.com/legal#licenses" dc:title="reactions-" dc:description="reactions-" dc:publisher="Iconscout" dc:date="2018-07-15" dc:format="image/svg+xml" dc:language="en"><dc:creator><rdf:Bag><rdf:li>Irvan Kurnianto Rhomadhani</rdf:li></rdf:Bag></dc:creator></rdf:Description></rdf:RDF></metadata></svg>